<svg width="20" height="20" viewBox="0 0 20 20" fill="none" xmlns="http://www.w3.org/2000/svg">
<path fill-rule="evenodd" clip-rule="evenodd" d="M0 10C0 7.34784 1.05357 4.8043 2.92893 2.92893C4.8043 1.05357 7.34784 0 10 0C12.6522 0 15.1957 1.05357 17.0711 2.92893C18.9464 4.8043 20 7.34784 20 10C20 12.6522 18.9464 15.1957 17.0711 17.0711C15.1957 18.9464 12.6522 20 10 20C7.34784 20 4.8043 18.9464 2.92893 17.0711C1.05357 15.1957 0 12.6522 0 10ZM13.528 14.472L10 10.9427L6.472 14.472L5.528 13.5293L9.05733 10L5.528 6.472L6.472 5.528L10 9.05733L13.528 5.528L14.472 6.472L10.9427 10L14.472 13.528L13.5293 14.472H13.528Z" fill="#DF0000"/>
</svg>
